<svg id="Layer_1" enable-background="new 0 0 512 512" height="512" viewBox="0 0 512 512" width="512" xmlns="http://www.w3.org/2000/svg"><g><path d="m190.667 96.4h130.666v94.267h-130.666z"/><path d="m497 96.4h-145.667v94.267h145.667c8.284 0 15-6.716 15-15v-64.267c0-8.284-6.716-15-15-15z"/><path d="m15 96.4c-8.284 0-15 6.716-15 15v64.267c0 8.284 6.716 15 15 15h145.667v-94.267z"/><path d="m48.2 220.667v276.333c0 8.284 6.716 15 15 15h113.533v-291.333z"/><path d="m335.267 512h113.533c8.284 0 15-6.716 15-15v-276.333h-128.533z"/><path d="m206.733 220.667h98.533v291.333h-98.533z"/><path d="m406.573 15.84c-.024-.025-.049-.05-.073-.074-21-21.001-55.027-21.041-76.065 0l-50.634 50.634h145.535c1.394-18.455-5.179-36.943-18.763-50.56z"/><path d="m232.198 66.4-50.632-50.632c-21.039-21.042-55.065-21.002-76.065 0-.024.023-.049.048-.073.074-13.584 13.617-20.156 32.104-18.764 50.558z"/></g></svg>